<?xml version="1.0" standalone="no"?>
<!DOCTYPE svg PUBLIC "-//W3C//DTD SVG 20010904//EN"
 "http://www.w3.org/TR/2001/REC-SVG-20010904/DTD/svg10.dtd">
<svg version="1.0" xmlns="http://www.w3.org/2000/svg"
 width="512.000000pt" height="512.000000pt" viewBox="0 0 512.000000 512.000000"
 preserveAspectRatio="xMidYMid meet">
<metadata>
Created by potrace 1.11, written by Peter Selinger 2001-2013
</metadata>
<g transform="translate(0.000000,512.000000) scale(0.100000,-0.100000)"
fill="#000000" stroke="none">
<path d="M2110 5042 c-30 -15 -71 -37 -91 -49 -20 -12 -133 -76 -250 -144
-211 -120 -349 -200 -379 -219 -8 -6 -22 -13 -30 -17 -8 -4 -94 -52 -190 -108
-226 -131 -291 -168 -310 -178 -8 -4 -33 -18 -55 -31 -22 -12 -112 -64 -200
-115 -88 -50 -167 -96 -175 -101 -42 -26 -182 -106 -230 -133 -63 -34 -88 -54
-102 -82 -19 -33 -10 -85 22 -135 16 -26 30 -49 30 -53 0 -3 22 -42 50 -86 27
-44 50 -83 50 -85 0 -3 14 -29 31 -58 45 -75 207 -354 237 -408 13 -25 28 -49
32 -55 4 -5 19 -30 32 -55 14 -25 122 -213 241 -417 118 -205 212 -373 209
-373 -4 0 -2 -4 3 -8 13 -9 35 -44 73 -114 16 -29 39 -69 50 -88 12 -19 40
-69 64 -110 24 -41 48 -84 55 -95 7 -11 20 -36 30 -55 10 -19 21 -37 24 -40 3
-3 32 -52 65 -110 32 -57 64 -112 69 -122 6 -10 53 -91 105 -180 52 -89 99
-172 104 -183 4 -11 27 -90 51 -176 23 -85 49 -165 56 -177 16 -25 47 -39 107
-46 44 -6 115 -22 142 -33 16 -7 23 -8 60 -17 14 -3 41 -10 60 -15 78 -21 190
-51 280 -76 84 -24 144 -39 190 -50 8 -2 56 -15 105 -28 50 -13 162 -43 250
-67 88 -23 257 -69 375 -100 118 -32 260 -70 315 -85 55 -15 107 -28 115 -30
8 -2 75 -20 149 -40 209 -57 220 -50 276 160 20 77 48 178 60 225 13 47 38
139 55 205 31 115 50 187 106 395 14 52 38 142 54 200 34 129 64 241 141 530
34 124 81 299 105 390 24 91 57 215 74 275 16 61 64 238 105 395 42 157 87
324 101 372 13 48 22 97 20 110 -3 13 -5 26 -5 30 -2 18 -55 58 -89 67 -20 5
-64 17 -97 26 -33 9 -67 17 -75 19 -12 3 -356 96 -405 110 -5 2 -27 6 -48 11
-21 4 -41 15 -46 24 -4 9 -7 104 -6 211 2 202 -2 231 -38 265 -21 19 -37 20
-403 23 l-381 3 -12 37 c-6 20 -31 112 -55 203 -50 190 -56 203 -96 224 -40
21 -43 20 -211 -25 -81 -23 -158 -43 -170 -45 -12 -2 -45 -11 -73 -19 -104
-30 -206 -56 -220 -56 -8 0 -18 10 -22 23 -3 12 -12 29 -19 37 -7 8 -24 35
-37 60 -14 25 -34 61 -45 80 -11 19 -62 107 -113 195 -50 88 -101 170 -113
182 -37 36 -76 37 -137 5z m147 -436 c62 -109 110 -202 107 -207 -3 -5 -14 -9
-24 -9 -11 0 -29 -4 -42 -9 -13 -5 -79 -24 -148 -42 -69 -17 -188 -49 -265
-69 -77 -21 -313 -84 -525 -140 -212 -56 -393 -106 -403 -112 -27 -14 -49 -54
-49 -91 0 -18 21 -107 46 -198 45 -164 59 -218 111 -414 31 -118 47 -176 115
-430 28 -104 101 -374 161 -600 60 -225 112 -419 115 -430 3 -11 -24 32 -60
95 -37 63 -71 122 -76 130 -10 17 -101 173 -257 445 -61 105 -144 249 -186
322 -42 72 -85 147 -95 165 -11 18 -54 93 -96 165 -43 73 -74 137 -71 143 4 6
2 9 -4 8 -9 -3 -148 228 -242 399 -32 58 -34 53 56 103 33 18 175 100 315 181
140 81 272 156 293 168 20 11 52 29 70 40 48 28 557 321 592 341 56 33 300
172 345 198 25 14 54 31 65 39 11 7 24 12 29 10 5 -2 60 -92 123 -201z m920
-343 c17 -65 30 -119 29 -121 -2 -1 -216 -1 -476 0 l-472 3 103 27 c99 25 559
149 699 188 36 10 70 19 75 19 6 1 25 -52 42 -116z m-1418 -1470 c0 -670 -2
-1213 -4 -1208 -2 6 -22 78 -44 160 -62 236 -139 522 -166 620 -85 310 -387
1435 -392 1462 -6 24 -15 21 257 92 85 23 196 52 245 65 50 14 93 25 97 25 4
1 7 -547 7 -1216z m837 1124 c2 -2 -10 -55 -27 -118 -17 -63 -45 -170 -64
-239 -46 -175 -89 -338 -141 -530 -88 -321 -356 -1326 -366 -1365 -5 -22 -12
-43 -16 -47 -5 -5 -8 2086 -3 2277 l1 30 306 -2 c169 -1 308 -4 310 -6z m986
-1 c5 -7 8 -7 8 -1 0 12 434 15 446 3 8 -9 11 -206 3 -219 -5 -9 -74 7 -274
63 -38 10 -88 23 -110 28 -130 30 -467 128 -451 131 48 10 371 5 378 -5z
m-460 -212 c178 -47 384 -101 458 -121 74 -20 224 -60 332 -89 108 -29 210
-56 227 -59 17 -3 91 -21 163 -41 73 -19 141 -37 150 -39 31 -7 333 -88 336
-90 1 -1 -13 -60 -33 -131 -20 -71 -38 -137 -40 -146 -2 -9 -16 -61 -30 -115
-15 -54 -42 -154 -60 -223 -18 -69 -63 -237 -100 -375 -37 -137 -68 -257 -70
-266 -2 -9 -13 -49 -25 -89 -12 -40 -23 -82 -26 -94 -2 -11 -19 -77 -38 -146
-56 -204 -234 -869 -241 -900 -2 -8 -21 -80 -43 -160 -22 -80 -50 -184 -62
-232 -13 -49 -26 -88 -30 -88 -3 0 -30 7 -60 16 -29 9 -61 17 -69 19 -19 3
-269 70 -321 85 -46 13 -301 81 -320 85 -8 2 -115 31 -238 64 -122 34 -229 61
-238 61 -8 0 -12 4 -9 10 3 5 0 8 -7 5 -19 -7 -330 79 -321 88 4 5 0 5 -8 2
-9 -3 -83 12 -165 34 -82 23 -168 46 -192 52 -32 9 -41 16 -38 28 9 30 65 234
131 481 36 135 69 261 75 280 23 83 253 936 364 1355 110 413 221 825 223 825
1 0 147 -39 325 -86z"/>
<path d="M3080 2935 c-195 -33 -370 -202 -398 -385 -31 -207 69 -575 260 -955
125 -248 208 -345 281 -331 36 7 190 77 195 88 2 5 8 8 13 8 14 0 206 127 324
215 279 208 468 424 519 594 52 176 -43 412 -207 519 -23 15 -44 29 -47 33 -8
9 -135 40 -165 41 -36 0 -118 -17 -165 -34 -30 -11 -65 -21 -77 -21 -11 -1
-19 -5 -17 -9 3 -4 -4 -12 -14 -17 -16 -8 -22 -4 -40 28 -12 21 -43 61 -70 87
-48 50 -112 106 -112 98 0 -2 -17 4 -38 15 -65 33 -149 42 -242 26z m142 -215
c50 -16 117 -70 143 -113 15 -26 29 -72 35 -115 5 -40 15 -81 22 -91 16 -26
51 -41 94 -41 37 0 55 14 122 99 42 52 97 80 167 85 72 5 120 -8 177 -50 117
-84 126 -236 25 -388 -38 -56 -155 -178 -231 -241 -27 -22 -54 -45 -60 -50
-71 -66 -453 -328 -470 -322 -16 5 -159 287 -214 422 -60 145 -114 313 -107
326 4 5 2 9 -3 9 -5 0 -13 21 -17 46 -3 25 -8 56 -11 67 -8 44 -6 143 5 183
39 144 183 221 323 174z"/>
</g>
</svg>
